# AST/ASF file generated using VICON BodyLanguage
# -----------------------------------------------
:version 1.10
:name VICON
:units
  mass 1.0
  length 0.45
  angle deg
:documentation
   .ast/.asf automatically generated from VICON data using
   VICON BodyBuilder and BodyLanguage model FoxedUp or BRILLIANT.MOD
:root
   order TX TY TZ RX RY RZ
   axis XYZ
   position 0 0 0  
   orientation 0 0 0 
:bonedata
  begin
     id 1 
     name lhipjoint
     direction 0.714689 -0.624256 0.315473 
     length 2.45343 
     axis 0 0 0  XYZ
  end
  begin
     id 2 
     name lfemur
     direction 0.34202 -0.939693 0  
     length 6.59069  
     axis 0 0 20  XYZ
    dof rx ry rz
    limits (-160.0 20.0)
           (-70.0 70.0)
           (-60.0 70.0)
  end
  begin
     id 3 
     name ltibia
     direction 0.34202 -0.939693 0   
     length 6.73476   
     axis 0 0 20   XYZ
    dof rx
    limits (-10.0 170.0)
  end
  begin
     id 4 
     name lfoot
     direction 0.0718085 -0.197292 0.977711   
     length 1.52607   
     axis -90 7.62852e-016 20   XYZ
    dof rx rz
    limits (-45.0 90.0)
           (-70.0 20.0)
  end
  begin
     id 5 
     name ltoes
     direction 1.53553e-011 -4.22024e-011 1   
     length 0.777832   
     axis -90 7.62852e-016 20   XYZ
    dof rx
    limits (-90.0 20.0)
  end
  begin
     id 6 
     name rhipjoint
     direction -0.727419 -0.612432 0.309497   
     length 2.50079  
     axis 0 0 0  XYZ 
  end
  begin
     id 7 
     name rfemur
     direction -0.34202 -0.939693 0   
     length 6.51665   
     axis 0 0 -20   XYZ
    dof rx ry rz
    limits (-160.0 20.0)
           (-70.0 70.0)
           (-70.0 60.0)
  end
  begin
     id 8 
     name rtibia
     direction -0.34202 -0.939693 0   
     length 6.48919   
     axis 0 0 -20   XYZ
    dof rx
    limits (-10.0 170.0)
 end
 begin
     id 9 
     name rfoot
     direction -0.112205 -0.308282 0.944655   
     length 1.68717  
     axis -90 -7.62852e-016 -20   XYZ
    dof rx rz
    limits (-45.0 90.0)
           (-20.0 70.0)
  end
  begin
     id 10 
     name rtoes
     direction -1.53583e-011 -4.21993e-011 1   
     length 0.846859   
     axis -90 -7.62852e-016 -20   XYZ
    dof rx
    limits (-90.0 20.0)
  end
  begin
     id 11 
     name lowerback
     direction -0.00119603 0.996364 -0.0851956   
     length 1.67242   
     axis 0 0 0   XYZ
    dof rx ry rz
    limits (-20.0 45.0)
           (-30.0 30.0)
           (-30.0 30.0)
  end
  begin
     id 12 
     name upperback
     direction -0.00531001 0.998318 0.0577248   
     length 1.64819   
     axis 0 0 0   XYZ
    dof rx ry rz
    limits (-20.0 45.0)
           (-30.0 30.0)
           (-30.0 30.0)
  end
  begin
     id 13 
     name thorax
     direction -0.00653676 0.995132 0.0983291   
     length 1.67429   
     axis 0 0 0   XYZ
    dof rx ry rz
    limits (-20.0 45.0)
           (-30.0 30.0)
           (-30.0 30.0)
  end
  begin
     id 14 
     name lowerneck
     direction 0.0141424 0.999886 0.00525412   
     length 1.59623   
     axis 0 0 0   XYZ
    dof rx ry rz
    limits (-20.0 45.0)
           (-30.0 30.0)
           (-30.0 30.0)
  end
  begin
     id 15 
     name upperneck
     direction -0.0640064 0.987178 -0.146232   
     length 1.59576   
     axis 0 0 0   XYZ
    dof rx ry rz
    limits (-20.0 45.0)
           (-30.0 30.0)
           (-30.0 30.0)
  end
  begin
     id 16
     name head
     direction -0.0222942 0.998496 -0.0500859  
     length 1.60959  
     axis 0 0 0   XYZ
    dof rx ry rz
    limits (-20.0 45.0)
           (-30.0 30.0)
           (-30.0 30.0)
  end
  begin
     id 17 
     name lclavicle
     direction 0.908549 0.392612 0.142806  
     length 2.80649  
     axis 0 0 0   XYZ
    dof ry rz
    limits (-20.0 10.0)
           (0.0 20.0)
  end
  begin
     id 18 
     name lhumerus
     direction 1 -4.48968e-011 1.08832e-028   
     length 4.2884   
     axis -180 -30 -90   XYZ
    dof rx ry rz
    limits (-60.0 90.0)
           (-90.0 90.0)
           (-90.0 90.0)
  end
  begin
     id 19
     name lradius
     direction 1 -4.48952e-011 -3.02642e-028   
     length 3.06552   
     axis -180 -30 -90   XYZ
    dof rx
    limits (-10.0 170.0)
  end
  begin
     id 20
     name lwrist
     direction 1 -4.49014e-011 1.58672e-027   
     length 1.53276   
     axis -1.65735e-015 90 90   XYZ
    dof ry
    limits (-180.0 0.0)
 end
  begin
     id 21 
     name lhand
     direction 1 -4.48928e-011 3.17344e-027   
     length 0.753045   
     axis -2.02492e-015 90 90   XYZ
    dof rx rz
    limits (-90.0 90.0)
           (-45.0 45.0)
  end
  begin
     id 22 
     name lfingers
     direction 1 -4.48958e-011 6.34687e-027   
     length 0.607124   
     axis -4.04985e-015 90 90   XYZ
    dof rx
    limits (0.0 90.0)
  end
  begin
     id 23
     name lthumb
     direction 0.707107 -6.34905e-011 0.707107   
     length 0.871712   
     axis -90 45 2.85299e-015   XYZ
    dof rx rz
    limits (-45.0 45.0)
           (-45.0 45.0)
  end
  begin
     id 24 
     name rclavicle
     direction -0.885098 0.45949 0.0739604   
     length 2.9478  
     axis 0 0 0   XYZ 
    dof ry rz
    limits (-10.0 20.0)
           (-20.0 0.0)
  end
  begin
     id 25 
     name rhumerus
     direction -1 -4.4898e-011 -2.61739e-027  
     length 4.52172   
     axis -180 30 90   XYZ
    dof rx ry rz
    limits (-90.0 60.0)
           (-90.0 90.0)
           (-90.0 90.0)
  end
  begin
     id 26 
     name rradius
     direction -1 -4.48945e-011 9.02552e-028   
     length 2.8914   
     axis -180 30 90   XYZ
    dof rx
    limits (-10.0 170.0)
  end
  begin
     id 27 
     name rwrist
     direction -1 -4.49018e-011 1.58672e-027   
     length 1.4457   
     axis -1.65735e-015 -90 -90   XYZ
    dof ry
    limits (-180.0 0.0)
  end
  begin
     id 28
     name rhand
     direction -1 -4.48825e-011 3.17344e-027   
     length 0.680541   
     axis -2.02492e-015 -90 -90   XYZ
    dof rx rz
    limits (-90.0 90.0)
           (-45.0 45.0)
  end
  begin
     id 29
     name rfingers
     direction -1 -4.49067e-011 6.34687e-027   
     length 0.54867   
     axis -4.04985e-015 -90 -90   XYZ
    dof rx
    limits (0.0 90.0)
  end
  begin
     id 30
     name rthumb
     direction -0.707107 -6.34833e-011 0.707107   
     length 0.787783   
     axis -90 -45 -2.85299e-015   XYZ
    dof rx rz
    limits (-45.0 45.0)
           (-45.0 45.0)
  end
:hierarchy
  begin
    root lhipjoint rhipjoint lowerback
    lhipjoint lfemur
    lfemur ltibia
    ltibia lfoot
    lfoot ltoes
    rhipjoint rfemur
    rfemur rtibia
    rtibia rfoot
    rfoot rtoes
    lowerback upperback
    upperback thorax
    thorax lowerneck lclavicle rclavicle
    lowerneck upperneck
    upperneck head
    lclavicle lhumerus
    lhumerus lradius
    lradius lwrist
    lwrist lhand lthumb
    lhand lfingers
    rclavicle rhumerus
    rhumerus rradius
    rradius rwrist
    rwrist rhand rthumb
    rhand rfingers
  end

#!OML:ASF E:\emotionWalksFemale\Project 1\Capture day 1\Session 1\Female1.ASF
:FULLY-SPECIFIED
:DEGREES
130
root 9.81944 19.6968 -3.86121 8.07623 -0.807624 -1.83621
lowerback 13.4502 1.09064 0.312243
upperback -1.80087 1.45477 -0.557948
thorax -9.48791 0.6642 -1.0871
lowerneck -8.95886 -2.18325 -4.03709
upperneck 21.9755 -3.05288 3.37046
head 8.40507 -1.43884 1.50877
rclavicle 4.27387e-015 -6.36111e-015
rhumerus -20.2486 15.7244 -55.6007
rradius 57.3054
rwrist 2.04996
rhand -5.65333 -51.917
rfingers 7.12502
rthumb 20.1656 -80.8903
lclavicle 4.27387e-015 -6.36111e-015
lhumerus -28.1859 -14.9142 72.8152
lradius 35.8441
lwrist -13.1381
lhand -9.01433 -52.7564
lfingers 7.12502
lthumb 16.9326 -23.4746
rfemur -16.4794 15.5848 21.217
rtibia 3.2446
rfoot 0.0713819 -39.864
rtoes 54.4935
lfemur -24.6079 -24.7648 -12.9989
ltibia 19.7387
lfoot -12.0754 35.3975
ltoes 49.2143
131
root 9.82822 19.616 -3.74252 8.23993 -0.821914 -1.74764
lowerback 13.1801 1.12905 0.205052
upperback -1.85269 1.48397 -0.606202
thorax -9.38935 0.683478 -1.0786
lowerneck -9.32033 -2.00363 -4.21482
upperneck 22.2993 -2.82385 3.63139
head 8.57807 -1.31564 1.649
rclavicle 1.43622e-014 2.38542e-015
rhumerus -22.156 16.903 -56.9569
rradius 57.345
rwrist 1.9003
rhand -5.14529 -52.3098
rfingers 7.12502
rthumb 20.6538 -81.2309
lclavicle 1.43622e-014 2.38542e-015
lhumerus -30.15 -15.3035 74.1097
lradius 36.5144
lwrist -12.6268
lhand -9.14109 -52.8888
lfingers 7.12502
lthumb 16.8106 -23.5965
rfemur -16.7644 15.5873 20.7987
rtibia 2.59084
rfoot 1.12234 -39.7298
rtoes 54.3546
lfemur -25.4864 -25.2781 -12.5722
ltibia 19.8524
lfoot -11.9006 34.788
ltoes 47.2283
132
root 9.82555 19.5173 -3.61854 8.12934 -0.882946 -2.23243
lowerback 13.0718 1.19363 0.480753
upperback -1.82824 1.62699 -0.479535
thorax -9.29339 0.742505 -1.12495
lowerneck -9.22657 -2.1529 -4.12213
upperneck 22.2664 -3.06076 3.67152
head 8.55904 -1.41657 1.62301
rclavicle 1.93815e-015 3.97569e-015
rhumerus -24.1418 17.7027 -58.4234
rradius 57.6142
rwrist 1.59309
rhand -4.74166 -52.4872
rfingers 7.12502
rthumb 21.0416 -81.3656
lclavicle 1.93815e-015 3.97569e-015
lhumerus -32.0517 -15.3614 75.342
lradius 37.0797
lwrist -12.3752
lhand -8.91298 -53.3657
lfingers 7.12502
lthumb 17.0302 -24.0922
rfemur -16.869 15.7711 21.2456
rtibia 2.38777
rfoot 2.4776 -39.4058
rtoes 53.7525
lfemur -25.9717 -25.6823 -11.6106
ltibia 19.8929
lfoot -12.808 33.9544
ltoes 47.4598
133
root 9.83733 19.4103 -3.50322 8.1552 -0.766015 -2.20765
lowerback 13.0583 1.1401 0.575638
upperback -1.91431 1.56647 -0.533223
thorax -9.37694 0.705713 -1.22481
lowerneck -9.53491 -2.23203 -3.92377
upperneck 22.5033 -3.16458 3.49885
head 8.69569 -1.46248 1.51893
rclavicle 2.29099e-014 4.77083e-015
rhumerus -26.1572 18.2674 -59.9047
rradius 58.1926
rwrist 1.38758
rhand -4.36096 -52.6563
rfingers 7.12502
rthumb 21.4073 -81.4936
lclavicle 2.29099e-014 4.77083e-015
lhumerus -34.016 -15.3474 76.5009
lradius 37.7243
lwrist -12.0527
lhand -8.76363 -53.5544
lfingers 7.12502
lthumb 17.174 -24.2933
rfemur -17.1545 15.6807 21.0705
rtibia 2.30061
rfoot 5.26572 -38.7865
rtoes 51.3286
lfemur -26.6018 -26.384 -11.1585
ltibia 19.8675
lfoot -13.6786 33.5332
ltoes 48.3007
134
root 9.84679 19.2909 -3.38576 8.03994 -0.682105 -2.20115
lowerback 13.1299 1.09956 0.576811
upperback -1.98291 1.51229 -0.541387
thorax -9.49458 0.67793 -1.22611
lowerneck -9.82868 -2.21596 -3.84583
upperneck 22.7841 -3.1461 3.45934
head 8.84389 -1.44765 1.49313
rclavicle 1.96797e-014 -9.93923e-015
rhumerus -28.1645 18.6816 -61.3991
rradius 58.6855
rwrist 2.02345
rhand -4.16224 -52.2939
rfingers 7.12502
rthumb 21.5982 -81.1095
lclavicle 1.96797e-014 -9.93923e-015
lhumerus -35.885 -15.3436 77.6859
lradius 38.2165
lwrist -11.5601
lhand -8.79144 -53.0588
lfingers 7.12502
lthumb 17.1472 -23.7954
rfemur -17.009 15.6167 20.9084
rtibia 1.75769
rfoot 7.57934 -38.3471
rtoes 49.2557
lfemur -26.9776 -26.8157 -10.8668
ltibia 19.8773
lfoot -12.6056 33.5139
ltoes 46.854
135
root 9.85364 19.1603 -3.26508 7.85201 -0.675421 -2.19331
lowerback 13.087 1.12235 0.479234
upperback -1.99353 1.52928 -0.511918
thorax -9.48432 0.692453 -1.142
lowerneck -9.56414 -2.13729 -3.93851
upperneck 22.6128 -3.05898 3.61525
head 8.73585 -1.40199 1.57233
rclavicle -7.8023e-015 7.95139e-015
rhumerus -30.2284 18.883 -62.9581
rradius 58.94
rwrist 3.15234
rhand -4.68218 -51.1967
rfingers 7.12502
rthumb 21.0987 -80.0688
lclavicle -7.8023e-015 7.95139e-015
lhumerus -37.4413 -15.159 78.8683
lradius 38.4479
lwrist -11.1956
lhand -8.8342 -52.7787
lfingers 7.12502
lthumb 17.106 -23.5118
rfemur -17.2492 15.6716 20.9463
rtibia 2.37369
rfoot 10.4273 -37.293
rtoes 45.8288
lfemur -27.0756 -26.9126 -10.778
ltibia 19.7767
lfoot -10.8455 33.5244
ltoes 44.9385
136
root 9.86096 19.0178 -3.14393 7.59554 -0.678414 -2.23876
lowerback 12.9619 1.16105 0.485009
upperback -1.93087 1.58493 -0.473576
thorax -9.34299 0.721686 -1.11124
lowerneck -9.69815 -2.21122 -4.14861
upperneck 22.4768 -3.17851 3.89374
head 8.72725 -1.44653 1.68781
rclavicle 3.8266e-015 3.57812e-015
rhumerus -32.2078 18.677 -64.3932
rradius 59.2954
rwrist 3.98594
rhand -5.06056 -50.3308
rfingers 7.12502
rthumb 20.7352 -79.243
lclavicle 3.8266e-015 3.57812e-015
lhumerus -38.9741 -14.7315 79.8853
lradius 38.829
lwrist -11.0086
lhand -8.61101 -53.0236
lfingers 7.12502
lthumb 17.3209 -23.7754
rfemur -17.0562 15.7346 21.004
rtibia 2.36919
rfoot 13.4647 -36.3119
rtoes 42.2391
lfemur -27.0378 -26.749 -10.7917
ltibia 19.7722
lfoot -9.35541 33.5022
ltoes 43.4827
